# MagicaVoxel @ Ephtracy

# group
g Floor_01

# material
mtllib Floor_01.mtl
usemtl palette

# normals
vn -1 0 0
vn 1 0 0
vn 0 0 1
vn 0 0 -1
vn 0 -1 0
vn 0 1 0

# texcoords
vt 0.0214844 0.5
vt 0.0332031 0.5
vt 0.0488281 0.5
vt 0.0527344 0.5

# verts
v -5 0 4
v -5 0 -0
v -5 0 -2
v -5 0 -6
v -5 1 4
v -5 1 -0
v -5 1 -2
v -5 1 -6
v 5 0 4
v 5 0 -0
v 5 0 -2
v 5 0 -6
v 5 1 4
v 5 1 -0
v 5 1 -2
v 5 1 -6
v -5 0 4
v -5 1 4
v -1 0 4
v -1 1 4
v 1 0 4
v 1 1 4
v 5 0 4
v 5 1 4
v -5 0 -6
v -5 1 -6
v -1 0 -6
v -1 1 -6
v 1 0 -6
v 1 1 -6
v 5 0 -6
v 5 1 -6
v -5 0 4
v -1 0 4
v 1 0 4
v 5 0 4
v -4 0 3
v -1 0 3
v 1 0 3
v 4 0 3
v -3 0 2
v 3 0 2
v -5 0 -0
v -4 0 -0
v -1 0 -0
v 1 0 -0
v 4 0 -0
v 5 0 -0
v -5 0 -2
v -4 0 -2
v -1 0 -2
v 1 0 -2
v 4 0 -2
v 5 0 -2
v -3 0 -4
v 3 0 -4
v -4 0 -5
v -1 0 -5
v 1 0 -5
v 4 0 -5
v -5 0 -6
v -1 0 -6
v 1 0 -6
v 5 0 -6
v -5 1 4
v -1 1 4
v 1 1 4
v 5 1 4
v -4 1 3
v -1 1 3
v 1 1 3
v 4 1 3
v -3 1 2
v 3 1 2
v -5 1 -0
v -4 1 -0
v -1 1 -0
v 1 1 -0
v 4 1 -0
v 5 1 -0
v -5 1 -2
v -4 1 -2
v -1 1 -2
v 1 1 -2
v 4 1 -2
v 5 1 -2
v -3 1 -4
v 3 1 -4
v -4 1 -5
v -1 1 -5
v 1 1 -5
v 4 1 -5
v -5 1 -6
v -1 1 -6
v 1 1 -6
v 5 1 -6

# faces
f 5/1/1 2/1/1 1/1/1
f 6/4/1 3/4/1 2/4/1
f 6/1/1 2/1/1 5/1/1
f 7/1/1 4/1/1 3/1/1
f 7/4/1 3/4/1 6/4/1
f 8/1/1 4/1/1 7/1/1
f 9/1/2 10/1/2 13/1/2
f 10/4/2 11/4/2 14/4/2
f 13/1/2 10/1/2 14/1/2
f 11/1/2 12/1/2 15/1/2
f 14/4/2 11/4/2 15/4/2
f 15/1/2 12/1/2 16/1/2
f 19/1/3 18/1/3 17/1/3
f 20/1/3 18/1/3 19/1/3
f 21/4/3 20/4/3 19/4/3
f 22/4/3 20/4/3 21/4/3
f 23/1/3 22/1/3 21/1/3
f 24/1/3 22/1/3 23/1/3
f 25/1/4 26/1/4 27/1/4
f 27/1/4 26/1/4 28/1/4
f 27/4/4 28/4/4 29/4/4
f 29/4/4 28/4/4 30/4/4
f 29/1/4 30/1/4 31/1/4
f 31/1/4 30/1/4 32/1/4
f 37/1/5 34/1/5 33/1/5
f 38/4/5 35/4/5 34/4/5
f 38/1/5 34/1/5 37/1/5
f 39/1/5 36/1/5 35/1/5
f 39/4/5 35/4/5 38/4/5
f 40/1/5 36/1/5 39/1/5
f 41/4/5 38/4/5 37/4/5
f 41/4/5 39/4/5 38/4/5
f 41/4/5 40/4/5 39/4/5
f 42/4/5 40/4/5 41/4/5
f 43/1/5 37/1/5 33/1/5
f 44/4/5 41/4/5 37/4/5
f 44/1/5 37/1/5 43/1/5
f 45/3/5 42/3/5 41/3/5
f 46/3/5 42/3/5 45/3/5
f 47/1/5 36/1/5 40/1/5
f 47/4/5 40/4/5 42/4/5
f 48/1/5 36/1/5 47/1/5
f 49/4/5 44/4/5 43/4/5
f 50/4/5 41/4/5 44/4/5
f 50/4/5 44/4/5 49/4/5
f 51/2/5 46/2/5 45/2/5
f 51/3/5 45/3/5 41/3/5
f 52/3/5 42/3/5 46/3/5
f 52/2/5 46/2/5 51/2/5
f 53/4/5 47/4/5 42/4/5
f 53/4/5 48/4/5 47/4/5
f 54/4/5 48/4/5 53/4/5
f 55/3/5 51/3/5 41/3/5
f 55/4/5 41/4/5 50/4/5
f 55/3/5 52/3/5 51/3/5
f 56/3/5 42/3/5 52/3/5
f 56/3/5 52/3/5 55/3/5
f 56/4/5 53/4/5 42/4/5
f 57/1/5 50/1/5 49/1/5
f 57/4/5 55/4/5 50/4/5
f 57/4/5 56/4/5 55/4/5
f 58/4/5 56/4/5 57/4/5
f 59/4/5 56/4/5 58/4/5
f 60/1/5 54/1/5 53/1/5
f 60/4/5 56/4/5 59/4/5
f 60/4/5 53/4/5 56/4/5
f 61/1/5 58/1/5 57/1/5
f 61/1/5 57/1/5 49/1/5
f 62/4/5 59/4/5 58/4/5
f 62/1/5 58/1/5 61/1/5
f 63/1/5 60/1/5 59/1/5
f 63/4/5 59/4/5 62/4/5
f 64/1/5 54/1/5 60/1/5
f 64/1/5 60/1/5 63/1/5
f 65/1/6 66/1/6 69/1/6
f 66/4/6 67/4/6 70/4/6
f 69/1/6 66/1/6 70/1/6
f 67/1/6 68/1/6 71/1/6
f 70/4/6 67/4/6 71/4/6
f 71/1/6 68/1/6 72/1/6
f 69/4/6 70/4/6 73/4/6
f 70/4/6 71/4/6 73/4/6
f 71/4/6 72/4/6 73/4/6
f 73/4/6 72/4/6 74/4/6
f 65/1/6 69/1/6 75/1/6
f 69/4/6 73/4/6 76/4/6
f 75/1/6 69/1/6 76/1/6
f 73/3/6 74/3/6 77/3/6
f 77/3/6 74/3/6 78/3/6
f 72/1/6 68/1/6 79/1/6
f 74/4/6 72/4/6 79/4/6
f 79/1/6 68/1/6 80/1/6
f 75/4/6 76/4/6 81/4/6
f 76/4/6 73/4/6 82/4/6
f 81/4/6 76/4/6 82/4/6
f 77/2/6 78/2/6 83/2/6
f 73/3/6 77/3/6 83/3/6
f 78/3/6 74/3/6 84/3/6
f 83/2/6 78/2/6 84/2/6
f 74/4/6 79/4/6 85/4/6
f 79/4/6 80/4/6 85/4/6
f 85/4/6 80/4/6 86/4/6
f 73/3/6 83/3/6 87/3/6
f 82/4/6 73/4/6 87/4/6
f 83/3/6 84/3/6 87/3/6
f 84/3/6 74/3/6 88/3/6
f 87/3/6 84/3/6 88/3/6
f 74/4/6 85/4/6 88/4/6
f 81/1/6 82/1/6 89/1/6
f 82/4/6 87/4/6 89/4/6
f 87/4/6 88/4/6 89/4/6
f 89/4/6 88/4/6 90/4/6
f 90/4/6 88/4/6 91/4/6
f 85/1/6 86/1/6 92/1/6
f 91/4/6 88/4/6 92/4/6
f 88/4/6 85/4/6 92/4/6
f 89/1/6 90/1/6 93/1/6
f 81/1/6 89/1/6 93/1/6
f 90/4/6 91/4/6 94/4/6
f 93/1/6 90/1/6 94/1/6
f 91/1/6 92/1/6 95/1/6
f 94/4/6 91/4/6 95/4/6
f 92/1/6 86/1/6 96/1/6
f 95/1/6 92/1/6 96/1/6
