# MagicaVoxel @ Ephtracy

# group
g Floor_03

# material
mtllib Floor_03.mtl
usemtl palette

# normals
vn -1 0 0
vn 1 0 0
vn 0 0 1
vn 0 0 -1
vn 0 -1 0
vn 0 1 0

# texcoords
vt 0.0214844 0.5
vt 0.0488281 0.5
vt 0.0527344 0.5

# verts
v -18 39 3
v -18 39 2
v -18 39 -2
v -18 39 -3
v -18 40 3
v -18 40 2
v -18 40 -2
v -18 40 -3
v -12 39 3
v -12 39 2
v -12 39 -2
v -12 39 -3
v -12 40 3
v -12 40 2
v -12 40 -2
v -12 40 -3
v -18 39 3
v -18 40 3
v -17 39 3
v -17 40 3
v -13 39 3
v -13 40 3
v -12 39 3
v -12 40 3
v -18 39 -3
v -18 40 -3
v -17 39 -3
v -17 40 -3
v -13 39 -3
v -13 40 -3
v -12 39 -3
v -12 40 -3
v -18 39 3
v -17 39 3
v -13 39 3
v -12 39 3
v -18 39 2
v -17 39 2
v -13 39 2
v -12 39 2
v -18 39 -2
v -17 39 -2
v -13 39 -2
v -12 39 -2
v -18 39 -3
v -17 39 -3
v -13 39 -3
v -12 39 -3
v -18 40 3
v -17 40 3
v -13 40 3
v -12 40 3
v -18 40 2
v -17 40 2
v -13 40 2
v -12 40 2
v -18 40 -2
v -17 40 -2
v -13 40 -2
v -12 40 -2
v -18 40 -3
v -17 40 -3
v -13 40 -3
v -12 40 -3

# faces
f 5/1/1 2/1/1 1/1/1
f 6/3/1 3/3/1 2/3/1
f 6/1/1 2/1/1 5/1/1
f 7/1/1 4/1/1 3/1/1
f 7/3/1 3/3/1 6/3/1
f 8/1/1 4/1/1 7/1/1
f 9/1/2 10/1/2 13/1/2
f 10/3/2 11/3/2 14/3/2
f 13/1/2 10/1/2 14/1/2
f 11/1/2 12/1/2 15/1/2
f 14/3/2 11/3/2 15/3/2
f 15/1/2 12/1/2 16/1/2
f 19/1/3 18/1/3 17/1/3
f 20/1/3 18/1/3 19/1/3
f 21/3/3 20/3/3 19/3/3
f 22/3/3 20/3/3 21/3/3
f 23/1/3 22/1/3 21/1/3
f 24/1/3 22/1/3 23/1/3
f 25/1/4 26/1/4 27/1/4
f 27/1/4 26/1/4 28/1/4
f 27/3/4 28/3/4 29/3/4
f 29/3/4 28/3/4 30/3/4
f 29/1/4 30/1/4 31/1/4
f 31/1/4 30/1/4 32/1/4
f 37/1/5 34/1/5 33/1/5
f 38/3/5 35/3/5 34/3/5
f 38/1/5 34/1/5 37/1/5
f 39/1/5 36/1/5 35/1/5
f 39/3/5 35/3/5 38/3/5
f 40/1/5 36/1/5 39/1/5
f 41/3/5 38/3/5 37/3/5
f 42/2/5 39/2/5 38/2/5
f 42/3/5 38/3/5 41/3/5
f 43/3/5 40/3/5 39/3/5
f 43/2/5 39/2/5 42/2/5
f 44/3/5 40/3/5 43/3/5
f 45/1/5 42/1/5 41/1/5
f 46/3/5 43/3/5 42/3/5
f 46/1/5 42/1/5 45/1/5
f 47/1/5 44/1/5 43/1/5
f 47/3/5 43/3/5 46/3/5
f 48/1/5 44/1/5 47/1/5
f 49/1/6 50/1/6 53/1/6
f 50/3/6 51/3/6 54/3/6
f 53/1/6 50/1/6 54/1/6
f 51/1/6 52/1/6 55/1/6
f 54/3/6 51/3/6 55/3/6
f 55/1/6 52/1/6 56/1/6
f 53/3/6 54/3/6 57/3/6
f 54/2/6 55/2/6 58/2/6
f 57/3/6 54/3/6 58/3/6
f 55/3/6 56/3/6 59/3/6
f 58/2/6 55/2/6 59/2/6
f 59/3/6 56/3/6 60/3/6
f 57/1/6 58/1/6 61/1/6
f 58/3/6 59/3/6 62/3/6
f 61/1/6 58/1/6 62/1/6
f 59/1/6 60/1/6 63/1/6
f 62/3/6 59/3/6 63/3/6
f 63/1/6 60/1/6 64/1/6
